<mxfile host="Electron" agent="Mozilla/5.0 (Windows NT 10.0; Win64; x64) AppleWebKit/537.36 (KHTML, like Gecko) draw.io/24.7.5 Chrome/126.0.6478.183 Electron/31.3.0 Safari/537.36" version="24.7.5">
  <diagram name="Page-1" id="QO-2lFczdz_xKPLlgd2o">
    <mxGraphModel dx="778" dy="466" grid="1" gridSize="10" guides="1" tooltips="1" connect="1" arrows="1" fold="1" page="1" pageScale="1" pageWidth="827" pageHeight="1169" math="0" shadow="0">
      <root>
        <mxCell id="0" />
        <mxCell id="1" parent="0" />
        <mxCell id="Nr2h6ciW4aCvyQQrzoq7-3" value="" style="curved=1;endArrow=none;html=1;rounded=0;strokeWidth=8;endFill=0;strokeColor=#00CCCC;" parent="1" edge="1">
          <mxGeometry width="50" height="50" relative="1" as="geometry">
            <mxPoint x="434" y="400.35" as="sourcePoint" />
            <mxPoint x="474" y="440.35" as="targetPoint" />
            <Array as="points">
              <mxPoint x="454" y="400.35" />
              <mxPoint x="454" y="440.35" />
            </Array>
          </mxGeometry>
        </mxCell>
        <mxCell id="Nr2h6ciW4aCvyQQrzoq7-4" value="" style="curved=1;endArrow=none;html=1;rounded=0;strokeWidth=8;endFill=0;strokeColor=#3399FF;" parent="1" edge="1">
          <mxGeometry width="50" height="50" relative="1" as="geometry">
            <mxPoint x="250" y="360.35" as="sourcePoint" />
            <mxPoint x="290" y="400.35" as="targetPoint" />
            <Array as="points">
              <mxPoint x="270" y="360.35" />
              <mxPoint x="270" y="400.35" />
            </Array>
          </mxGeometry>
        </mxCell>
        <mxCell id="Nr2h6ciW4aCvyQQrzoq7-5" value="" style="ellipse;whiteSpace=wrap;html=1;aspect=fixed;strokeColor=none;rounded=0;strokeWidth=8;align=center;verticalAlign=middle;fontFamily=Helvetica;fontSize=11;fontColor=default;labelBackgroundColor=default;fillColor=#666666;" parent="1" vertex="1">
          <mxGeometry x="250" y="350.35" width="20" height="20" as="geometry" />
        </mxCell>
        <mxCell id="Nr2h6ciW4aCvyQQrzoq7-6" value="" style="endArrow=none;html=1;rounded=0;strokeColor=#666666;strokeWidth=8;align=center;verticalAlign=middle;fontFamily=Helvetica;fontSize=11;fontColor=default;labelBackgroundColor=default;endFill=0;curved=1;" parent="1" edge="1">
          <mxGeometry width="50" height="50" relative="1" as="geometry">
            <mxPoint x="160" y="359.98" as="sourcePoint" />
            <mxPoint x="260" y="359.98" as="targetPoint" />
          </mxGeometry>
        </mxCell>
        <mxCell id="Nr2h6ciW4aCvyQQrzoq7-7" value="" style="ellipse;whiteSpace=wrap;html=1;aspect=fixed;strokeColor=none;rounded=0;strokeWidth=8;align=center;verticalAlign=middle;fontFamily=Helvetica;fontSize=11;fontColor=default;labelBackgroundColor=default;fillColor=#666666;" parent="1" vertex="1">
          <mxGeometry x="150" y="350.35" width="20" height="20" as="geometry" />
        </mxCell>
        <mxCell id="Nr2h6ciW4aCvyQQrzoq7-8" value="" style="ellipse;whiteSpace=wrap;html=1;aspect=fixed;strokeColor=none;rounded=0;strokeWidth=8;align=center;verticalAlign=middle;fontFamily=Helvetica;fontSize=11;fontColor=default;labelBackgroundColor=default;fillColor=#3399FF;" parent="1" vertex="1">
          <mxGeometry x="380" y="390.35" width="20" height="20" as="geometry" />
        </mxCell>
        <mxCell id="Nr2h6ciW4aCvyQQrzoq7-10" value="" style="endArrow=none;html=1;rounded=0;strokeColor=#3399FF;strokeWidth=8;align=center;verticalAlign=middle;fontFamily=Helvetica;fontSize=11;fontColor=default;labelBackgroundColor=default;endFill=0;curved=1;" parent="1" edge="1">
          <mxGeometry width="50" height="50" relative="1" as="geometry">
            <mxPoint x="290" y="400.28" as="sourcePoint" />
            <mxPoint x="390" y="400.28" as="targetPoint" />
          </mxGeometry>
        </mxCell>
        <mxCell id="Nr2h6ciW4aCvyQQrzoq7-12" value="" style="endArrow=none;html=1;rounded=0;strokeColor=#3399FF;strokeWidth=8;align=center;verticalAlign=middle;fontFamily=Helvetica;fontSize=11;fontColor=default;labelBackgroundColor=default;endFill=0;curved=1;" parent="1" edge="1">
          <mxGeometry width="50" height="50" relative="1" as="geometry">
            <mxPoint x="390" y="400.01" as="sourcePoint" />
            <mxPoint x="440" y="400.35" as="targetPoint" />
          </mxGeometry>
        </mxCell>
        <mxCell id="Nr2h6ciW4aCvyQQrzoq7-13" value="" style="ellipse;whiteSpace=wrap;html=1;aspect=fixed;strokeColor=none;rounded=0;strokeWidth=8;align=center;verticalAlign=middle;fontFamily=Helvetica;fontSize=11;fontColor=default;labelBackgroundColor=default;fillColor=#3399FF;" parent="1" vertex="1">
          <mxGeometry x="434" y="390.35" width="20" height="20" as="geometry" />
        </mxCell>
        <mxCell id="Nr2h6ciW4aCvyQQrzoq7-14" value="" style="ellipse;whiteSpace=wrap;html=1;aspect=fixed;strokeColor=none;rounded=0;strokeWidth=8;align=center;verticalAlign=middle;fontFamily=Helvetica;fontSize=11;fontColor=default;labelBackgroundColor=default;fillColor=#3399FF;" parent="1" vertex="1">
          <mxGeometry x="535" y="390.35" width="20" height="20" as="geometry" />
        </mxCell>
        <mxCell id="Nr2h6ciW4aCvyQQrzoq7-15" value="" style="endArrow=none;html=1;rounded=0;strokeColor=#3399FF;strokeWidth=8;align=center;verticalAlign=middle;fontFamily=Helvetica;fontSize=11;fontColor=default;labelBackgroundColor=default;endFill=0;curved=1;" parent="1" edge="1">
          <mxGeometry width="50" height="50" relative="1" as="geometry">
            <mxPoint x="450" y="400.11" as="sourcePoint" />
            <mxPoint x="540" y="400.35" as="targetPoint" />
          </mxGeometry>
        </mxCell>
        <mxCell id="Nr2h6ciW4aCvyQQrzoq7-21" value="" style="ellipse;whiteSpace=wrap;html=1;aspect=fixed;strokeColor=none;rounded=0;strokeWidth=8;align=center;verticalAlign=middle;fontFamily=Helvetica;fontSize=11;fontColor=default;labelBackgroundColor=default;fillColor=#00CCCC;gradientColor=none;" parent="1" vertex="1">
          <mxGeometry x="470" y="430.35" width="20" height="20" as="geometry" />
        </mxCell>
        <mxCell id="Nr2h6ciW4aCvyQQrzoq7-22" value="" style="endArrow=none;html=1;rounded=0;strokeColor=#00CCCC;strokeWidth=8;align=center;verticalAlign=middle;fontFamily=Helvetica;fontSize=11;fontColor=default;labelBackgroundColor=default;endFill=0;curved=1;" parent="1" edge="1">
          <mxGeometry width="50" height="50" relative="1" as="geometry">
            <mxPoint x="485" y="440.06000000000006" as="sourcePoint" />
            <mxPoint x="575" y="440.30000000000007" as="targetPoint" />
          </mxGeometry>
        </mxCell>
        <mxCell id="Nr2h6ciW4aCvyQQrzoq7-23" value="" style="ellipse;whiteSpace=wrap;html=1;aspect=fixed;strokeColor=none;rounded=0;strokeWidth=8;align=center;verticalAlign=middle;fontFamily=Helvetica;fontSize=11;fontColor=default;labelBackgroundColor=default;fillColor=#00CCCC;" parent="1" vertex="1">
          <mxGeometry x="570" y="430.35" width="20" height="20" as="geometry" />
        </mxCell>
        <mxCell id="Nr2h6ciW4aCvyQQrzoq7-29" value="" style="endArrow=none;html=1;rounded=0;strokeColor=#00CCCC;strokeWidth=8;align=center;verticalAlign=middle;fontFamily=Helvetica;fontSize=11;fontColor=default;labelBackgroundColor=default;endFill=0;curved=1;" parent="1" edge="1">
          <mxGeometry width="50" height="50" relative="1" as="geometry">
            <mxPoint x="580" y="440.2300000000001" as="sourcePoint" />
            <mxPoint x="630" y="440.38" as="targetPoint" />
          </mxGeometry>
        </mxCell>
        <mxCell id="Nr2h6ciW4aCvyQQrzoq7-30" value="" style="ellipse;whiteSpace=wrap;html=1;aspect=fixed;strokeColor=none;rounded=0;strokeWidth=8;align=center;verticalAlign=middle;fontFamily=Helvetica;fontSize=11;fontColor=default;labelBackgroundColor=default;fillColor=#00CCCC;" parent="1" vertex="1">
          <mxGeometry x="620" y="430.35" width="20" height="20" as="geometry" />
        </mxCell>
        <mxCell id="gaqE59rr0FKue0IYY-p5-1" value="" style="curved=1;endArrow=none;html=1;rounded=0;strokeWidth=8;endFill=0;strokeColor=#00CCCC;" parent="1" edge="1">
          <mxGeometry width="50" height="50" relative="1" as="geometry">
            <mxPoint x="434" y="580" as="sourcePoint" />
            <mxPoint x="474" y="620" as="targetPoint" />
            <Array as="points">
              <mxPoint x="454" y="580" />
              <mxPoint x="454" y="620" />
            </Array>
          </mxGeometry>
        </mxCell>
        <mxCell id="gaqE59rr0FKue0IYY-p5-4" value="" style="endArrow=none;html=1;rounded=0;strokeColor=#666666;strokeWidth=8;align=center;verticalAlign=middle;fontFamily=Helvetica;fontSize=11;fontColor=default;labelBackgroundColor=default;endFill=0;curved=1;" parent="1" edge="1">
          <mxGeometry width="50" height="50" relative="1" as="geometry">
            <mxPoint x="160" y="579.63" as="sourcePoint" />
            <mxPoint x="260" y="579.63" as="targetPoint" />
          </mxGeometry>
        </mxCell>
        <mxCell id="gaqE59rr0FKue0IYY-p5-5" value="" style="ellipse;whiteSpace=wrap;html=1;aspect=fixed;strokeColor=none;rounded=0;strokeWidth=8;align=center;verticalAlign=middle;fontFamily=Helvetica;fontSize=11;fontColor=default;labelBackgroundColor=default;fillColor=#666666;" parent="1" vertex="1">
          <mxGeometry x="150" y="570" width="20" height="20" as="geometry" />
        </mxCell>
        <mxCell id="gaqE59rr0FKue0IYY-p5-6" value="" style="ellipse;whiteSpace=wrap;html=1;aspect=fixed;strokeColor=none;rounded=0;strokeWidth=8;align=center;verticalAlign=middle;fontFamily=Helvetica;fontSize=11;fontColor=default;labelBackgroundColor=default;fillColor=#666666;" parent="1" vertex="1">
          <mxGeometry x="380" y="570" width="20" height="20" as="geometry" />
        </mxCell>
        <mxCell id="gaqE59rr0FKue0IYY-p5-7" value="" style="endArrow=none;html=1;rounded=0;strokeColor=#666666;strokeWidth=8;align=center;verticalAlign=middle;fontFamily=Helvetica;fontSize=11;fontColor=default;labelBackgroundColor=default;endFill=0;curved=1;" parent="1" edge="1">
          <mxGeometry width="50" height="50" relative="1" as="geometry">
            <mxPoint x="260" y="580" as="sourcePoint" />
            <mxPoint x="384" y="579.93" as="targetPoint" />
          </mxGeometry>
        </mxCell>
        <mxCell id="gaqE59rr0FKue0IYY-p5-8" value="" style="endArrow=none;html=1;rounded=0;strokeColor=#666666;strokeWidth=8;align=center;verticalAlign=middle;fontFamily=Helvetica;fontSize=11;fontColor=default;labelBackgroundColor=default;endFill=0;curved=1;" parent="1" edge="1">
          <mxGeometry width="50" height="50" relative="1" as="geometry">
            <mxPoint x="390" y="579.66" as="sourcePoint" />
            <mxPoint x="440" y="580" as="targetPoint" />
          </mxGeometry>
        </mxCell>
        <mxCell id="gaqE59rr0FKue0IYY-p5-9" value="" style="ellipse;whiteSpace=wrap;html=1;aspect=fixed;strokeColor=none;rounded=0;strokeWidth=8;align=center;verticalAlign=middle;fontFamily=Helvetica;fontSize=11;fontColor=default;labelBackgroundColor=default;fillColor=#666666;" parent="1" vertex="1">
          <mxGeometry x="434" y="570" width="20" height="20" as="geometry" />
        </mxCell>
        <mxCell id="gaqE59rr0FKue0IYY-p5-10" value="" style="ellipse;whiteSpace=wrap;html=1;aspect=fixed;strokeColor=none;rounded=0;strokeWidth=8;align=center;verticalAlign=middle;fontFamily=Helvetica;fontSize=11;fontColor=default;labelBackgroundColor=default;fillColor=#666666;" parent="1" vertex="1">
          <mxGeometry x="535" y="570" width="20" height="20" as="geometry" />
        </mxCell>
        <mxCell id="gaqE59rr0FKue0IYY-p5-11" value="" style="endArrow=none;html=1;rounded=0;strokeColor=#666666;strokeWidth=8;align=center;verticalAlign=middle;fontFamily=Helvetica;fontSize=11;fontColor=default;labelBackgroundColor=default;endFill=0;curved=1;" parent="1" edge="1">
          <mxGeometry width="50" height="50" relative="1" as="geometry">
            <mxPoint x="450" y="579.76" as="sourcePoint" />
            <mxPoint x="540" y="580" as="targetPoint" />
          </mxGeometry>
        </mxCell>
        <mxCell id="gaqE59rr0FKue0IYY-p5-12" value="" style="ellipse;whiteSpace=wrap;html=1;aspect=fixed;strokeColor=none;rounded=0;strokeWidth=8;align=center;verticalAlign=middle;fontFamily=Helvetica;fontSize=11;fontColor=default;labelBackgroundColor=default;fillColor=#00CCCC;gradientColor=none;" parent="1" vertex="1">
          <mxGeometry x="470" y="610" width="20" height="20" as="geometry" />
        </mxCell>
        <mxCell id="gaqE59rr0FKue0IYY-p5-13" value="" style="endArrow=none;html=1;rounded=0;strokeColor=#00CCCC;strokeWidth=8;align=center;verticalAlign=middle;fontFamily=Helvetica;fontSize=11;fontColor=default;labelBackgroundColor=default;endFill=0;curved=1;" parent="1" edge="1">
          <mxGeometry width="50" height="50" relative="1" as="geometry">
            <mxPoint x="485" y="619.71" as="sourcePoint" />
            <mxPoint x="575" y="619.95" as="targetPoint" />
          </mxGeometry>
        </mxCell>
        <mxCell id="gaqE59rr0FKue0IYY-p5-14" value="" style="ellipse;whiteSpace=wrap;html=1;aspect=fixed;strokeColor=none;rounded=0;strokeWidth=8;align=center;verticalAlign=middle;fontFamily=Helvetica;fontSize=11;fontColor=default;labelBackgroundColor=default;fillColor=#00CCCC;" parent="1" vertex="1">
          <mxGeometry x="570" y="610" width="20" height="20" as="geometry" />
        </mxCell>
        <mxCell id="gaqE59rr0FKue0IYY-p5-15" value="" style="endArrow=none;html=1;rounded=0;strokeColor=#00CCCC;strokeWidth=8;align=center;verticalAlign=middle;fontFamily=Helvetica;fontSize=11;fontColor=default;labelBackgroundColor=default;endFill=0;curved=1;" parent="1" edge="1">
          <mxGeometry width="50" height="50" relative="1" as="geometry">
            <mxPoint x="580" y="619.8800000000001" as="sourcePoint" />
            <mxPoint x="630" y="620.03" as="targetPoint" />
          </mxGeometry>
        </mxCell>
        <mxCell id="gaqE59rr0FKue0IYY-p5-16" value="" style="ellipse;whiteSpace=wrap;html=1;aspect=fixed;strokeColor=none;rounded=0;strokeWidth=8;align=center;verticalAlign=middle;fontFamily=Helvetica;fontSize=11;fontColor=default;labelBackgroundColor=default;fillColor=#00CCCC;" parent="1" vertex="1">
          <mxGeometry x="620" y="610" width="20" height="20" as="geometry" />
        </mxCell>
        <mxCell id="gaqE59rr0FKue0IYY-p5-17" value="" style="shape=flexArrow;endArrow=classic;html=1;rounded=0;fillColor=#dae8fc;strokeColor=#6c8ebf;strokeWidth=2;" parent="1" edge="1">
          <mxGeometry width="50" height="50" relative="1" as="geometry">
            <mxPoint x="399.17" y="460" as="sourcePoint" />
            <mxPoint x="399.17" y="540" as="targetPoint" />
          </mxGeometry>
        </mxCell>
        <mxCell id="gaqE59rr0FKue0IYY-p5-3" value="" style="ellipse;whiteSpace=wrap;html=1;aspect=fixed;strokeColor=none;rounded=0;strokeWidth=8;align=center;verticalAlign=middle;fontFamily=Helvetica;fontSize=11;fontColor=default;labelBackgroundColor=default;fillColor=#666666;" parent="1" vertex="1">
          <mxGeometry x="250" y="570" width="20" height="20" as="geometry" />
        </mxCell>
        <mxCell id="gaqE59rr0FKue0IYY-p5-18" value="&amp;nbsp;git merge dev" style="rounded=1;whiteSpace=wrap;html=1;fillColor=#dae8fc;strokeColor=#6c8ebf;strokeWidth=2;fontFamily=Helvetica;" parent="1" vertex="1">
          <mxGeometry x="280" y="480" width="100" height="30" as="geometry" />
        </mxCell>
        <mxCell id="gaqE59rr0FKue0IYY-p5-20" value="" style="endArrow=classic;html=1;rounded=0;" parent="1" edge="1">
          <mxGeometry width="50" height="50" relative="1" as="geometry">
            <mxPoint x="260" y="330" as="sourcePoint" />
            <mxPoint x="259.58" y="350.35" as="targetPoint" />
          </mxGeometry>
        </mxCell>
        <mxCell id="gaqE59rr0FKue0IYY-p5-22" value="&lt;font style=&quot;font-size: 9px;&quot;&gt;HEAD&lt;/font&gt;" style="text;html=1;align=center;verticalAlign=middle;whiteSpace=wrap;rounded=0;" parent="1" vertex="1">
          <mxGeometry x="245" y="314" width="30" height="15" as="geometry" />
        </mxCell>
        <mxCell id="gaqE59rr0FKue0IYY-p5-23" value="" style="endArrow=classic;html=1;rounded=0;" parent="1" edge="1">
          <mxGeometry width="50" height="50" relative="1" as="geometry">
            <mxPoint x="545" y="549.65" as="sourcePoint" />
            <mxPoint x="544.5799999999999" y="570" as="targetPoint" />
          </mxGeometry>
        </mxCell>
        <mxCell id="gaqE59rr0FKue0IYY-p5-24" value="&lt;font style=&quot;font-size: 9px;&quot;&gt;HEAD&lt;/font&gt;" style="text;html=1;align=center;verticalAlign=middle;whiteSpace=wrap;rounded=0;" parent="1" vertex="1">
          <mxGeometry x="530" y="533.65" width="30" height="15" as="geometry" />
        </mxCell>
        <mxCell id="zhaK7HXt1jt2ocauSP5V-1" value="&lt;font face=&quot;Verdana&quot; color=&quot;#ffffff&quot;&gt;main&lt;/font&gt;" style="rounded=1;whiteSpace=wrap;html=1;strokeColor=none;fillColor=#666666;" vertex="1" parent="1">
          <mxGeometry x="88" y="345.35" width="49" height="30" as="geometry" />
        </mxCell>
        <mxCell id="zhaK7HXt1jt2ocauSP5V-2" value="&lt;font face=&quot;Verdana&quot; color=&quot;#ffffff&quot;&gt;dev&lt;/font&gt;" style="rounded=1;whiteSpace=wrap;html=1;strokeColor=none;fillColor=#3399FF;" vertex="1" parent="1">
          <mxGeometry x="201" y="385.35" width="49" height="30" as="geometry" />
        </mxCell>
      </root>
    </mxGraphModel>
  </diagram>
</mxfile>
